<svg width="1024" height="805" viewBox="0 0 1024 805" fill="none" xmlns="http://www.w3.org/2000/svg">
<g clip-path="url(#clip0_964_12843)">
<rect width="1024" height="805" fill="white"/>
<rect y="103" width="1024" height="506" fill="#01D2D7" fill-opacity="0.2"/>
<rect opacity="0.75" x="976" y="103" width="48" height="506" fill="#01C3CB"/>
<rect opacity="0.75" y="103" width="48" height="506" fill="#01C3CB"/>
<path d="M475.772 43H478.932V48.84H485.272V43H488.432V57H485.272V51.48H478.932V57H475.772V43ZM496.075 46.14C497.808 46.14 499.121 46.64 500.015 47.64C500.921 48.64 501.375 50.0333 501.375 51.82C501.375 52.14 501.368 52.3867 501.355 52.56H493.635C493.808 53.24 494.141 53.7733 494.635 54.16C495.128 54.5333 495.721 54.72 496.415 54.72C496.921 54.72 497.408 54.6267 497.875 54.44C498.341 54.24 498.761 53.9533 499.135 53.58L500.755 55.22C500.208 55.8333 499.541 56.3067 498.755 56.64C497.981 56.96 497.115 57.12 496.155 57.12C495.021 57.12 494.028 56.8933 493.175 56.44C492.335 55.9867 491.681 55.3467 491.215 54.52C490.761 53.6933 490.535 52.74 490.535 51.66C490.535 50.5667 490.768 49.6067 491.235 48.78C491.701 47.94 492.355 47.2933 493.195 46.84C494.035 46.3733 494.995 46.14 496.075 46.14ZM498.475 50.74C498.448 50.0333 498.221 49.4667 497.795 49.04C497.368 48.6133 496.801 48.4 496.095 48.4C495.428 48.4 494.868 48.6133 494.415 49.04C493.975 49.4533 493.695 50.02 493.575 50.74H498.475ZM509.628 57V55.74C509.268 56.1933 508.802 56.54 508.228 56.78C507.655 57.02 506.995 57.14 506.248 57.14C505.115 57.14 504.215 56.8333 503.548 56.22C502.882 55.5933 502.548 54.78 502.548 53.78C502.548 52.7667 502.902 51.98 503.608 51.42C504.328 50.8467 505.342 50.5533 506.648 50.54H509.608V50.34C509.608 49.7667 509.415 49.3267 509.028 49.02C508.655 48.7 508.102 48.54 507.368 48.54C506.368 48.54 505.302 48.8533 504.168 49.48L503.208 47.36C504.062 46.9333 504.862 46.62 505.608 46.42C506.355 46.22 507.175 46.12 508.068 46.12C509.508 46.12 510.622 46.46 511.408 47.14C512.208 47.82 512.615 48.7667 512.628 49.98L512.648 57H509.628ZM507.108 54.94C507.748 54.94 508.302 54.7867 508.768 54.48C509.235 54.1733 509.515 53.7867 509.608 53.32V52.36H507.188C506.588 52.36 506.142 52.46 505.848 52.66C505.568 52.8467 505.428 53.1533 505.428 53.58C505.428 53.9933 505.575 54.3267 505.868 54.58C506.175 54.82 506.588 54.94 507.108 54.94ZM525.922 42.16V57H522.862V55.42C522.476 55.98 521.996 56.4067 521.422 56.7C520.849 56.98 520.196 57.12 519.462 57.12C518.449 57.12 517.556 56.8933 516.782 56.44C516.022 55.9733 515.429 55.32 515.002 54.48C514.589 53.64 514.382 52.6733 514.382 51.58C514.382 50.5 514.589 49.5467 515.002 48.72C515.416 47.8933 516.002 47.2533 516.762 46.8C517.522 46.3467 518.396 46.12 519.382 46.12C520.902 46.12 522.062 46.6867 522.862 47.82V42.16H525.922ZM520.182 54.64C520.969 54.64 521.609 54.3667 522.102 53.82C522.609 53.26 522.862 52.54 522.862 51.66C522.862 50.78 522.609 50.0667 522.102 49.52C521.609 48.96 520.969 48.68 520.182 48.68C519.382 48.68 518.729 48.96 518.222 49.52C517.729 50.0667 517.476 50.78 517.462 51.66C517.476 52.54 517.729 53.26 518.222 53.82C518.729 54.3667 519.382 54.64 520.182 54.64ZM533.614 46.14C535.347 46.14 536.66 46.64 537.554 47.64C538.46 48.64 538.914 50.0333 538.914 51.82C538.914 52.14 538.907 52.3867 538.894 52.56H531.174C531.347 53.24 531.68 53.7733 532.174 54.16C532.667 54.5333 533.26 54.72 533.954 54.72C534.46 54.72 534.947 54.6267 535.414 54.44C535.88 54.24 536.3 53.9533 536.674 53.58L538.294 55.22C537.747 55.8333 537.08 56.3067 536.294 56.64C535.52 56.96 534.654 57.12 533.694 57.12C532.56 57.12 531.567 56.8933 530.714 56.44C529.874 55.9867 529.22 55.3467 528.754 54.52C528.3 53.6933 528.074 52.74 528.074 51.66C528.074 50.5667 528.307 49.6067 528.774 48.78C529.24 47.94 529.894 47.2933 530.734 46.84C531.574 46.3733 532.534 46.14 533.614 46.14ZM536.014 50.74C535.987 50.0333 535.76 49.4667 535.334 49.04C534.907 48.6133 534.34 48.4 533.634 48.4C532.967 48.4 532.407 48.6133 531.954 49.04C531.514 49.4533 531.234 50.02 531.114 50.74H536.014ZM544.007 48.18C544.381 47.5133 544.867 47.0067 545.467 46.66C546.067 46.3133 546.767 46.1333 547.567 46.12V49.02C547.461 49.0067 547.301 49 547.087 49C546.141 49 545.387 49.26 544.827 49.78C544.281 50.2867 544.007 50.9667 544.007 51.82V57H540.927V46.24H544.007V48.18Z" fill="#014F6E"/>
<path d="M481.694 350.38C481.214 349.807 480.647 349.36 479.994 349.04C479.354 348.707 478.707 348.54 478.054 348.54C477.267 348.54 476.547 348.733 475.894 349.12C475.24 349.507 474.727 350.033 474.354 350.7C473.98 351.367 473.794 352.107 473.794 352.92C473.794 353.733 473.98 354.48 474.354 355.16C474.727 355.827 475.24 356.36 475.894 356.76C476.547 357.147 477.267 357.34 478.054 357.34C478.68 357.34 479.314 357.193 479.954 356.9C480.607 356.593 481.187 356.187 481.694 355.68L483.554 357.7C482.807 358.473 481.927 359.087 480.914 359.54C479.914 359.993 478.907 360.22 477.894 360.22C476.52 360.22 475.274 359.907 474.154 359.28C473.034 358.64 472.154 357.767 471.514 356.66C470.874 355.553 470.554 354.32 470.554 352.96C470.554 351.613 470.88 350.393 471.534 349.3C472.187 348.207 473.08 347.347 474.214 346.72C475.36 346.093 476.627 345.78 478.014 345.78C479.027 345.78 480.027 345.993 481.014 346.42C482 346.833 482.84 347.4 483.534 348.12L481.694 350.38ZM489.986 349.14C491.12 349.14 492.12 349.367 492.986 349.82C493.866 350.273 494.546 350.913 495.026 351.74C495.506 352.567 495.746 353.527 495.746 354.62C495.746 355.7 495.506 356.66 495.026 357.5C494.546 358.327 493.866 358.973 492.986 359.44C492.12 359.893 491.12 360.12 489.986 360.12C488.84 360.12 487.826 359.893 486.946 359.44C486.08 358.973 485.406 358.327 484.926 357.5C484.446 356.66 484.206 355.7 484.206 354.62C484.206 353.527 484.446 352.567 484.926 351.74C485.406 350.913 486.08 350.273 486.946 349.82C487.826 349.367 488.84 349.14 489.986 349.14ZM489.986 351.7C489.186 351.7 488.533 351.973 488.026 352.52C487.533 353.067 487.286 353.78 487.286 354.66C487.286 355.54 487.533 356.253 488.026 356.8C488.533 357.347 489.186 357.62 489.986 357.62C490.773 357.62 491.413 357.347 491.906 356.8C492.413 356.253 492.666 355.54 492.666 354.66C492.666 353.78 492.413 353.067 491.906 352.52C491.413 351.973 490.773 351.7 489.986 351.7ZM504.583 349.12C505.783 349.12 506.736 349.493 507.443 350.24C508.163 350.987 508.523 351.987 508.523 353.24V360H505.443V354.14C505.443 353.46 505.249 352.927 504.863 352.54C504.489 352.14 503.976 351.94 503.323 351.94C502.563 351.953 501.963 352.22 501.523 352.74C501.083 353.247 500.863 353.9 500.863 354.7V360H497.783V349.24H500.863V351.12C501.609 349.813 502.849 349.147 504.583 349.12ZM517.841 359.4C517.441 359.64 516.995 359.827 516.501 359.96C516.021 360.08 515.535 360.14 515.041 360.14C514.041 360.14 513.228 359.853 512.601 359.28C511.975 358.707 511.661 357.887 511.661 356.82V351.84H510.161V349.72H511.661V346.76H514.721V349.72H517.641V351.86H514.721V356.3C514.721 357.127 515.048 357.54 515.701 357.54C516.155 357.54 516.655 357.407 517.201 357.14L517.841 359.4ZM524.239 349.14C525.972 349.14 527.285 349.64 528.179 350.64C529.085 351.64 529.539 353.033 529.539 354.82C529.539 355.14 529.532 355.387 529.519 355.56H521.799C521.972 356.24 522.305 356.773 522.799 357.16C523.292 357.533 523.885 357.72 524.579 357.72C525.085 357.72 525.572 357.627 526.039 357.44C526.505 357.24 526.925 356.953 527.299 356.58L528.919 358.22C528.372 358.833 527.705 359.307 526.919 359.64C526.145 359.96 525.279 360.12 524.319 360.12C523.185 360.12 522.192 359.893 521.339 359.44C520.499 358.987 519.845 358.347 519.379 357.52C518.925 356.693 518.699 355.74 518.699 354.66C518.699 353.567 518.932 352.607 519.399 351.78C519.865 350.94 520.519 350.293 521.359 349.84C522.199 349.373 523.159 349.14 524.239 349.14ZM526.639 353.74C526.612 353.033 526.385 352.467 525.959 352.04C525.532 351.613 524.965 351.4 524.259 351.4C523.592 351.4 523.032 351.613 522.579 352.04C522.139 352.453 521.859 353.02 521.739 353.74H526.639ZM538.352 349.12C539.552 349.12 540.506 349.493 541.212 350.24C541.932 350.987 542.292 351.987 542.292 353.24V360H539.212V354.14C539.212 353.46 539.019 352.927 538.632 352.54C538.259 352.14 537.746 351.94 537.092 351.94C536.332 351.953 535.732 352.22 535.292 352.74C534.852 353.247 534.632 353.9 534.632 354.7V360H531.552V349.24H534.632V351.12C535.379 349.813 536.619 349.147 538.352 349.12ZM551.611 359.4C551.211 359.64 550.764 359.827 550.271 359.96C549.791 360.08 549.304 360.14 548.811 360.14C547.811 360.14 546.997 359.853 546.371 359.28C545.744 358.707 545.431 357.887 545.431 356.82V351.84H543.931V349.72H545.431V346.76H548.491V349.72H551.411V351.86H548.491V356.3C548.491 357.127 548.817 357.54 549.471 357.54C549.924 357.54 550.424 357.407 550.971 357.14L551.611 359.4Z" fill="#014F6E"/>
<rect width="48" height="103" fill="#C0FAFA"/>
<rect x="976" width="48" height="103" fill="#C0FAFA"/>
<rect opacity="0.5" y="609" width="48" height="199" fill="#01D2D7"/>
<path d="M479.591 698H489.651L489.631 700.62H482.751V704.06H489.071V706.7H482.751V712H479.591V698ZM496.285 701.14C497.419 701.14 498.419 701.367 499.285 701.82C500.165 702.273 500.845 702.913 501.325 703.74C501.805 704.567 502.045 705.527 502.045 706.62C502.045 707.7 501.805 708.66 501.325 709.5C500.845 710.327 500.165 710.973 499.285 711.44C498.419 711.893 497.419 712.12 496.285 712.12C495.139 712.12 494.125 711.893 493.245 711.44C492.379 710.973 491.705 710.327 491.225 709.5C490.745 708.66 490.505 707.7 490.505 706.62C490.505 705.527 490.745 704.567 491.225 703.74C491.705 702.913 492.379 702.273 493.245 701.82C494.125 701.367 495.139 701.14 496.285 701.14ZM496.285 703.7C495.485 703.7 494.832 703.973 494.325 704.52C493.832 705.067 493.585 705.78 493.585 706.66C493.585 707.54 493.832 708.253 494.325 708.8C494.832 709.347 495.485 709.62 496.285 709.62C497.072 709.62 497.712 709.347 498.205 708.8C498.712 708.253 498.965 707.54 498.965 706.66C498.965 705.78 498.712 705.067 498.205 704.52C497.712 703.973 497.072 703.7 496.285 703.7ZM508.942 701.14C510.075 701.14 511.075 701.367 511.942 701.82C512.822 702.273 513.502 702.913 513.982 703.74C514.462 704.567 514.702 705.527 514.702 706.62C514.702 707.7 514.462 708.66 513.982 709.5C513.502 710.327 512.822 710.973 511.942 711.44C511.075 711.893 510.075 712.12 508.942 712.12C507.795 712.12 506.782 711.893 505.902 711.44C505.035 710.973 504.362 710.327 503.882 709.5C503.402 708.66 503.162 707.7 503.162 706.62C503.162 705.527 503.402 704.567 503.882 703.74C504.362 702.913 505.035 702.273 505.902 701.82C506.782 701.367 507.795 701.14 508.942 701.14ZM508.942 703.7C508.142 703.7 507.488 703.973 506.982 704.52C506.488 705.067 506.242 705.78 506.242 706.66C506.242 707.54 506.488 708.253 506.982 708.8C507.488 709.347 508.142 709.62 508.942 709.62C509.728 709.62 510.368 709.347 510.862 708.8C511.368 708.253 511.622 707.54 511.622 706.66C511.622 705.78 511.368 705.067 510.862 704.52C510.368 703.973 509.728 703.7 508.942 703.7ZM523.398 711.4C522.998 711.64 522.551 711.827 522.058 711.96C521.578 712.08 521.091 712.14 520.598 712.14C519.598 712.14 518.784 711.853 518.158 711.28C517.531 710.707 517.218 709.887 517.218 708.82V703.84H515.718V701.72H517.218V698.76H520.278V701.72H523.198V703.86H520.278V708.3C520.278 709.127 520.604 709.54 521.258 709.54C521.711 709.54 522.211 709.407 522.758 709.14L523.398 711.4ZM529.795 701.14C531.529 701.14 532.842 701.64 533.735 702.64C534.642 703.64 535.095 705.033 535.095 706.82C535.095 707.14 535.089 707.387 535.075 707.56H527.355C527.529 708.24 527.862 708.773 528.355 709.16C528.849 709.533 529.442 709.72 530.135 709.72C530.642 709.72 531.129 709.627 531.595 709.44C532.062 709.24 532.482 708.953 532.855 708.58L534.475 710.22C533.929 710.833 533.262 711.307 532.475 711.64C531.702 711.96 530.835 712.12 529.875 712.12C528.742 712.12 527.749 711.893 526.895 711.44C526.055 710.987 525.402 710.347 524.935 709.52C524.482 708.693 524.255 707.74 524.255 706.66C524.255 705.567 524.489 704.607 524.955 703.78C525.422 702.94 526.075 702.293 526.915 701.84C527.755 701.373 528.715 701.14 529.795 701.14ZM532.195 705.74C532.169 705.033 531.942 704.467 531.515 704.04C531.089 703.613 530.522 703.4 529.815 703.4C529.149 703.4 528.589 703.613 528.135 704.04C527.695 704.453 527.415 705.02 527.295 705.74H532.195ZM540.189 703.18C540.562 702.513 541.049 702.007 541.649 701.66C542.249 701.313 542.949 701.133 543.749 701.12V704.02C543.642 704.007 543.482 704 543.269 704C542.322 704 541.569 704.26 541.009 704.78C540.462 705.287 540.189 705.967 540.189 706.82V712H537.109V701.24H540.189V703.18Z" fill="#014F6E"/>
<rect opacity="0.5" x="976" y="609" width="48" height="199" fill="#01D2D7"/>
</g>
<rect x="0.5" y="0.5" width="1023" height="804" stroke="#B8D1DC"/>
<defs>
<clipPath id="clip0_964_12843">
<rect width="1024" height="805" fill="white"/>
</clipPath>
</defs>
</svg>
