<svg width="373" height="118" viewBox="0 0 373 118" fill="none" xmlns="http://www.w3.org/2000/svg">
<rect x="0.5" y="0.5" width="372" height="87" rx="9.5" fill="#F5F9FB"/>
<rect x="20" y="64" width="4" height="4" fill="#01D2D7"/>
<rect x="40" y="60" width="8" height="8" fill="#01D2D7"/>
<rect x="64" y="56" width="12" height="12" fill="#01D2D7"/>
<rect x="92" y="52" width="16" height="16" fill="#01D2D7"/>
<rect x="124" y="48" width="20" height="20" fill="#01D2D7"/>
<rect x="160" y="44" width="24" height="24" fill="#01D2D7"/>
<rect x="200" y="36" width="32" height="32" fill="#01D2D7"/>
<rect x="248" y="28" width="40" height="40" fill="#01D2D7"/>
<rect x="304" y="20" width="48" height="48" fill="#01D2D7"/>
<rect x="0.5" y="0.5" width="372" height="87" rx="9.5" stroke="#B8D1DC"/>
<path d="M26.232 110.808V111.84H24.936V114H23.856V111.84H19.692V110.952L22.692 105.6H23.82L20.94 110.808H23.856V108.66H24.936V110.808H26.232Z" fill="#014F6E"/>
<path d="M45.328 105.552C46.176 105.552 46.844 105.744 47.332 106.128C47.82 106.504 48.064 107.024 48.064 107.688C48.064 108.104 47.948 108.472 47.716 108.792C47.492 109.104 47.176 109.344 46.768 109.512C47.304 109.68 47.724 109.952 48.028 110.328C48.332 110.696 48.484 111.136 48.484 111.648C48.484 112.392 48.2 112.98 47.632 113.412C47.072 113.844 46.308 114.06 45.34 114.06C44.372 114.06 43.604 113.848 43.036 113.424C42.476 112.992 42.196 112.408 42.196 111.672C42.196 111.152 42.352 110.704 42.664 110.328C42.976 109.952 43.408 109.68 43.96 109.512C43.528 109.328 43.192 109.08 42.952 108.768C42.72 108.448 42.604 108.076 42.604 107.652C42.604 107.004 42.848 106.492 43.336 106.116C43.824 105.74 44.488 105.552 45.328 105.552ZM45.34 106.392C44.788 106.392 44.356 106.512 44.044 106.752C43.74 106.992 43.588 107.324 43.588 107.748C43.588 108.18 43.74 108.516 44.044 108.756C44.356 108.996 44.788 109.116 45.34 109.116C45.892 109.116 46.32 108.996 46.624 108.756C46.928 108.516 47.08 108.18 47.08 107.748C47.08 107.324 46.928 106.992 46.624 106.752C46.32 106.512 45.892 106.392 45.34 106.392ZM45.328 110.028C44.688 110.028 44.188 110.164 43.828 110.436C43.468 110.7 43.288 111.068 43.288 111.54C43.288 112.044 43.468 112.436 43.828 112.716C44.188 112.996 44.692 113.136 45.34 113.136C45.98 113.136 46.48 112.996 46.84 112.716C47.208 112.436 47.392 112.048 47.392 111.552C47.392 111.08 47.208 110.708 46.84 110.436C46.48 110.164 45.976 110.028 45.328 110.028Z" fill="#014F6E"/>
<path d="M65.572 105.6H68.632V114H67.48V106.644H65.572V105.6ZM76.4577 112.956V114H70.3857V113.112L73.6377 109.74C73.9897 109.388 74.2697 109.04 74.4777 108.696C74.6857 108.344 74.7897 108.04 74.7897 107.784C74.7897 107.408 74.6417 107.112 74.3457 106.896C74.0577 106.68 73.6577 106.572 73.1457 106.572C72.7537 106.572 72.3457 106.664 71.9217 106.848C71.4977 107.024 71.1137 107.272 70.7697 107.592L70.2777 106.716C70.7337 106.348 71.2177 106.064 71.7297 105.864C72.2497 105.656 72.7697 105.552 73.2897 105.552C74.1057 105.552 74.7577 105.74 75.2457 106.116C75.7417 106.492 75.9897 106.996 75.9897 107.628C75.9897 108.372 75.4697 109.284 74.4297 110.364L71.8977 112.956H76.4577Z" fill="#014F6E"/>
<path d="M94.572 105.6H97.632V114H96.48V106.644H94.572V105.6ZM105.206 107.04C104.942 106.872 104.638 106.744 104.294 106.656C103.958 106.56 103.626 106.512 103.298 106.512C102.49 106.512 101.87 106.792 101.438 107.352C101.006 107.912 100.79 108.68 100.79 109.656C100.79 109.808 100.794 109.924 100.802 110.004C101.01 109.548 101.322 109.2 101.738 108.96C102.154 108.72 102.654 108.6 103.238 108.6C104.078 108.6 104.738 108.84 105.218 109.32C105.706 109.8 105.95 110.448 105.95 111.264C105.95 111.832 105.83 112.328 105.59 112.752C105.35 113.168 105.01 113.492 104.57 113.724C104.13 113.948 103.618 114.06 103.034 114.06C102.338 114.06 101.734 113.9 101.222 113.58C100.718 113.26 100.33 112.796 100.058 112.188C99.7937 111.572 99.6617 110.836 99.6617 109.98C99.6617 109.092 99.8057 108.316 100.094 107.652C100.39 106.98 100.802 106.464 101.33 106.104C101.866 105.736 102.494 105.552 103.214 105.552C103.614 105.552 104.034 105.608 104.474 105.72C104.922 105.832 105.318 105.98 105.662 106.164L105.206 107.04ZM103.034 109.524C102.626 109.524 102.27 109.608 101.966 109.776C101.662 109.936 101.426 110.152 101.258 110.424C101.098 110.696 101.022 110.992 101.03 111.312C101.022 111.592 101.09 111.864 101.234 112.128C101.378 112.392 101.594 112.612 101.882 112.788C102.178 112.964 102.538 113.052 102.962 113.052C103.538 113.052 103.998 112.892 104.342 112.572C104.694 112.252 104.87 111.812 104.87 111.252C104.87 110.724 104.702 110.304 104.366 109.992C104.038 109.68 103.594 109.524 103.034 109.524Z" fill="#014F6E"/>
<path d="M134.028 112.956V114H127.956V113.112L131.208 109.74C131.56 109.388 131.84 109.04 132.048 108.696C132.256 108.344 132.36 108.04 132.36 107.784C132.36 107.408 132.212 107.112 131.916 106.896C131.628 106.68 131.228 106.572 130.716 106.572C130.324 106.572 129.916 106.664 129.492 106.848C129.068 107.024 128.684 107.272 128.34 107.592L127.848 106.716C128.304 106.348 128.788 106.064 129.3 105.864C129.82 105.656 130.34 105.552 130.86 105.552C131.676 105.552 132.328 105.74 132.816 106.116C133.312 106.492 133.56 106.996 133.56 107.628C133.56 108.372 133.04 109.284 132 110.364L129.468 112.956H134.028ZM138.782 105.552C139.91 105.552 140.778 105.92 141.386 106.656C141.994 107.384 142.298 108.432 142.298 109.8C142.298 111.168 141.994 112.22 141.386 112.956C140.778 113.692 139.91 114.06 138.782 114.06C137.646 114.06 136.774 113.692 136.166 112.956C135.566 112.22 135.266 111.168 135.266 109.8C135.266 108.432 135.566 107.384 136.166 106.656C136.774 105.92 137.646 105.552 138.782 105.552ZM138.782 106.464C137.23 106.464 136.454 107.576 136.454 109.8C136.454 110.904 136.65 111.736 137.042 112.296C137.434 112.856 138.014 113.136 138.782 113.136C139.55 113.136 140.13 112.856 140.522 112.296C140.914 111.736 141.11 110.904 141.11 109.8C141.11 107.576 140.334 106.464 138.782 106.464Z" fill="#014F6E"/>
<path d="M172.028 112.956V114H165.956V113.112L169.208 109.74C169.56 109.388 169.84 109.04 170.048 108.696C170.256 108.344 170.36 108.04 170.36 107.784C170.36 107.408 170.212 107.112 169.916 106.896C169.628 106.68 169.228 106.572 168.716 106.572C168.324 106.572 167.916 106.664 167.492 106.848C167.068 107.024 166.684 107.272 166.34 107.592L165.848 106.716C166.304 106.348 166.788 106.064 167.3 105.864C167.82 105.656 168.34 105.552 168.86 105.552C169.676 105.552 170.328 105.74 170.816 106.116C171.312 106.492 171.56 106.996 171.56 107.628C171.56 108.372 171.04 109.284 170 110.364L167.468 112.956H172.028ZM179.17 110.808V111.84H177.874V114H176.794V111.84H172.63V110.952L175.63 105.6H176.758L173.878 110.808H176.794V108.66H177.874V110.808H179.17Z" fill="#014F6E"/>
<path d="M214.16 109.164C215 109.212 215.668 109.432 216.164 109.824C216.66 110.216 216.908 110.744 216.908 111.408C216.908 111.928 216.772 112.388 216.5 112.788C216.236 113.188 215.856 113.5 215.36 113.724C214.872 113.948 214.3 114.06 213.644 114.06C213.116 114.06 212.584 113.98 212.048 113.82C211.52 113.66 211.064 113.448 210.68 113.184L211.172 112.248C211.508 112.512 211.884 112.716 212.3 112.86C212.716 113.004 213.14 113.076 213.572 113.076C214.26 113.076 214.8 112.928 215.192 112.632C215.584 112.336 215.78 111.94 215.78 111.444C215.78 110.948 215.584 110.572 215.192 110.316C214.8 110.052 214.248 109.92 213.536 109.92H212.384V109.188L214.964 106.644H211.088L211.076 105.6H216.476V106.332L213.656 109.128L214.16 109.164ZM224.048 112.956V114H217.976V113.112L221.228 109.74C221.58 109.388 221.86 109.04 222.068 108.696C222.276 108.344 222.38 108.04 222.38 107.784C222.38 107.408 222.232 107.112 221.936 106.896C221.648 106.68 221.248 106.572 220.736 106.572C220.344 106.572 219.936 106.664 219.512 106.848C219.088 107.024 218.704 107.272 218.36 107.592L217.868 106.716C218.324 106.348 218.808 106.064 219.32 105.864C219.84 105.656 220.36 105.552 220.88 105.552C221.696 105.552 222.348 105.74 222.836 106.116C223.332 106.492 223.58 106.996 223.58 107.628C223.58 108.372 223.06 109.284 222.02 110.364L219.488 112.956H224.048Z" fill="#014F6E"/>
<path d="M268.232 110.808V111.84H266.936V114H265.856V111.84H261.692V110.952L264.692 105.6H265.82L262.94 110.808H265.856V108.66H266.936V110.808H268.232ZM272.934 105.552C274.062 105.552 274.93 105.92 275.538 106.656C276.146 107.384 276.45 108.432 276.45 109.8C276.45 111.168 276.146 112.22 275.538 112.956C274.93 113.692 274.062 114.06 272.934 114.06C271.798 114.06 270.926 113.692 270.318 112.956C269.718 112.22 269.418 111.168 269.418 109.8C269.418 108.432 269.718 107.384 270.318 106.656C270.926 105.92 271.798 105.552 272.934 105.552ZM272.934 106.464C271.382 106.464 270.606 107.576 270.606 109.8C270.606 110.904 270.802 111.736 271.194 112.296C271.586 112.856 272.166 113.136 272.934 113.136C273.702 113.136 274.282 112.856 274.674 112.296C275.066 111.736 275.262 110.904 275.262 109.8C275.262 107.576 274.486 106.464 272.934 106.464Z" fill="#014F6E"/>
<path d="M328.232 110.808V111.84H326.936V114H325.856V111.84H321.692V110.952L324.692 105.6H325.82L322.94 110.808H325.856V108.66H326.936V110.808H328.232ZM332.418 105.552C333.266 105.552 333.934 105.744 334.422 106.128C334.91 106.504 335.154 107.024 335.154 107.688C335.154 108.104 335.038 108.472 334.806 108.792C334.582 109.104 334.266 109.344 333.858 109.512C334.394 109.68 334.814 109.952 335.118 110.328C335.422 110.696 335.574 111.136 335.574 111.648C335.574 112.392 335.29 112.98 334.722 113.412C334.162 113.844 333.398 114.06 332.43 114.06C331.462 114.06 330.694 113.848 330.126 113.424C329.566 112.992 329.286 112.408 329.286 111.672C329.286 111.152 329.442 110.704 329.754 110.328C330.066 109.952 330.498 109.68 331.05 109.512C330.618 109.328 330.282 109.08 330.042 108.768C329.81 108.448 329.694 108.076 329.694 107.652C329.694 107.004 329.938 106.492 330.426 106.116C330.914 105.74 331.578 105.552 332.418 105.552ZM332.43 106.392C331.878 106.392 331.446 106.512 331.134 106.752C330.83 106.992 330.678 107.324 330.678 107.748C330.678 108.18 330.83 108.516 331.134 108.756C331.446 108.996 331.878 109.116 332.43 109.116C332.982 109.116 333.41 108.996 333.714 108.756C334.018 108.516 334.17 108.18 334.17 107.748C334.17 107.324 334.018 106.992 333.714 106.752C333.41 106.512 332.982 106.392 332.43 106.392ZM332.418 110.028C331.778 110.028 331.278 110.164 330.918 110.436C330.558 110.7 330.378 111.068 330.378 111.54C330.378 112.044 330.558 112.436 330.918 112.716C331.278 112.996 331.782 113.136 332.43 113.136C333.07 113.136 333.57 112.996 333.93 112.716C334.298 112.436 334.482 112.048 334.482 111.552C334.482 111.08 334.298 110.708 333.93 110.436C333.57 110.164 333.066 110.028 332.418 110.028Z" fill="#014F6E"/>
</svg>
