<svg width="191" height="40" viewBox="0 0 191 40" fill="none" xmlns="http://www.w3.org/2000/svg">
<g id="Type=Reversed">
<path id="Vector" d="M103.863 19.3356C108.547 19.3356 111.685 23.016 111.685 28.4918V38.6802C111.685 38.8148 111.552 38.9495 111.419 38.9495H106.824C106.691 38.9495 106.559 38.8148 106.559 38.6802V28.5366C106.559 26.3823 105.542 24.1381 102.714 24.1381H102.626C100.372 24.2728 98.6486 26.1579 98.6044 28.402V38.6802C98.6044 38.8148 98.4718 38.9495 98.3393 38.9495H93.7877C93.6551 38.9495 93.5226 38.8148 93.5226 38.6802V19.8294C93.5226 19.6947 93.6109 19.5601 93.7877 19.5601H98.1625C98.2951 19.5601 98.4276 19.6947 98.4276 19.8294V21.5349C100.151 20.0089 101.874 19.3356 103.863 19.3356ZM173.771 35.4935C173.683 35.5833 173.727 35.7628 173.816 35.8526C176.555 38.6353 179.516 38.9944 182.079 38.9944C185.703 38.9944 188.398 37.5581 189.503 35.1793C189.856 34.4163 190.033 33.6084 190.033 32.7556C190.033 27.8185 185.835 26.876 182.167 26.6516C179.207 26.472 179.207 25.3948 179.207 25.0807C179.207 23.8239 181.195 23.6893 182.079 23.6893C183.758 23.6893 184.951 24.0932 185.968 24.9909C186.056 25.0807 186.233 25.0807 186.321 24.9909L188.928 21.894C189.017 21.7593 189.017 21.6247 188.884 21.5349C186.984 19.9191 184.996 19.2459 181.991 19.2459C180.179 19.201 178.411 19.6498 176.909 20.5475C175.23 21.49 174.169 23.2853 174.213 25.2153C174.213 28.6713 176.953 30.7808 181.858 31.1399C184.642 31.3194 184.996 32.1273 184.996 32.8454C184.996 33.8777 183.626 34.4163 182.3 34.4163H182.167C180.09 34.4163 178.146 33.6533 176.599 32.217C176.511 32.1273 176.334 32.1273 176.246 32.217V32.2619L173.771 35.4935ZM127.681 32.3068C128.433 31.3194 128.83 30.0627 128.786 28.8059C128.786 26.3823 127.328 23.8688 123.837 23.8688C120.92 23.8688 119.02 25.8886 119.02 28.8508C119.02 31.8131 120.964 33.8777 123.837 33.8777C125.295 33.9675 126.665 33.384 127.681 32.3068ZM128.654 19.7845C128.654 19.6498 128.786 19.5152 128.919 19.5152H133.47C133.603 19.5152 133.735 19.6498 133.735 19.7845V38.6353C133.735 38.7699 133.603 38.9046 133.47 38.9046H128.919C128.786 38.9046 128.654 38.7699 128.654 38.6353V37.199C127.063 38.7251 125.162 38.7251 123.527 38.77H123.262C120.523 38.77 118.225 37.8723 116.59 36.2565C114.822 34.5061 113.894 31.9926 113.894 28.8957C113.894 23.016 117.606 19.1561 123.351 19.1561H123.439C125.251 19.1561 127.151 19.3356 128.654 20.5924V19.7845ZM72.1789 14.8474V10.3142C72.1789 10.1346 72.0463 10 71.8695 10H55.3425C55.1658 10 55.0332 10.1346 55.0332 10.3142V38.5455C55.0332 38.7251 55.1658 38.8597 55.3425 38.8597H59.8057C59.9825 38.8597 60.115 38.7251 60.115 38.5455V27.0555C60.115 26.876 60.2476 26.7413 60.4244 26.7413H68.7321C68.9088 26.7413 69.0414 26.6067 69.0414 26.4271V21.894C69.0414 21.7144 68.9088 21.5798 68.7321 21.5798H60.4244C60.2476 21.5798 60.115 21.4451 60.115 21.2656V15.5206C60.115 15.3411 60.2476 15.2064 60.4244 15.2064H71.8253C72.0463 15.1615 72.1789 15.0269 72.1789 14.8474ZM169.397 32.8454C169.308 32.7556 169.131 32.7108 169.043 32.8005C168.159 33.5635 167.054 33.9675 165.906 33.9675C163.122 33.9675 161.177 31.9029 161.177 29.0304C161.177 26.1578 163.122 24.0932 165.906 24.0932C167.054 24.0932 168.159 24.5421 169.043 25.2602C169.131 25.35 169.308 25.35 169.397 25.2602L172.357 22.0735C172.446 21.9837 172.446 21.8042 172.357 21.7144C170.634 19.964 168.336 19.0215 165.861 19.1112C159.896 19.1112 156.051 22.9712 156.051 29.0752C156.051 35.1793 159.896 38.9944 165.861 38.9944C168.292 39.0841 170.634 38.0967 172.313 36.3463C172.401 36.2565 172.401 36.077 172.313 35.9872L169.397 32.8454ZM145.667 38.9046C145.799 38.9046 145.932 38.7699 145.932 38.6353V34.4163C145.932 34.2817 145.843 34.147 145.667 34.147H143.413C142.087 34.1021 141.469 33.4289 141.469 31.9926V24.7665H145.622C145.755 24.7665 145.888 24.6767 145.888 24.4972V19.8294C145.888 19.6947 145.799 19.5601 145.622 19.5601H141.513V15.4757C141.513 15.3411 141.38 15.2064 141.248 15.2064H136.652C136.519 15.2064 136.387 15.3411 136.387 15.4757V31.9926C136.387 36.3463 138.817 38.9046 143.104 38.9046H145.667ZM84.773 32.3068C85.5242 31.3194 85.9219 30.0627 85.8777 28.8059C85.8777 26.3823 84.4195 23.8688 80.9285 23.8688C78.0119 23.8688 76.1118 25.8886 76.1118 28.8508C76.1118 31.8131 78.0561 33.8777 80.9285 33.8777C82.3425 33.9675 83.7566 33.384 84.773 32.3068ZM85.7451 19.7845C85.7451 19.6498 85.8777 19.5152 86.0103 19.5152H90.5618C90.6944 19.5152 90.827 19.6049 90.827 19.7845V38.6353C90.827 38.7699 90.6944 38.9046 90.5618 38.9046H86.0103C85.8777 38.9046 85.7451 38.8148 85.7451 38.6353V37.199C84.1543 38.7251 82.2542 38.7251 80.6191 38.77H80.354C77.6142 38.77 75.3163 37.8723 73.6813 36.2565C71.9137 34.5061 70.9857 31.9926 70.9857 28.8957C70.9857 23.016 74.6977 19.1561 80.4424 19.1561H80.5308C82.3425 19.1561 84.2427 19.3356 85.7451 20.5924V19.7845ZM148.672 38.9046H153.267C153.4 38.9046 153.532 38.7699 153.532 38.6353V19.7845C153.532 19.6498 153.444 19.5152 153.267 19.5152H148.672C148.539 19.5152 148.406 19.6049 148.406 19.7845V38.6353C148.406 38.7699 148.539 38.9046 148.672 38.9046ZM153.886 13.815C153.886 10.0449 148.23 10.0449 148.23 13.815C148.23 17.5852 153.886 17.5852 153.886 13.815Z" fill="#FDFDFD"/>
<path id="Vector_2" d="M47.9748 4.65643L43.2148 11.9903C43.1258 12.1221 42.9479 12.2099 42.77 12.1221C31.693 6.63263 18.9257 16.6893 7.71531 14.3179C7.62634 14.274 7.53737 14.23 7.44839 14.1422L0.108273 3.11938C-0.0251842 2.8998 0.0193014 2.59239 0.241729 2.46064C0.3307 2.37281 0.464157 2.37281 0.597614 2.37281C3.44469 3.03155 6.24728 3.4707 9.13885 3.77811C26.2658 4.70034 35.4743 -5.44418 47.8858 4.17335C48.0637 4.26118 48.0637 4.48076 47.9748 4.65643ZM34.0063 25.736C34.0953 25.7799 34.1842 25.736 34.2732 25.6481L40.1008 16.7332C40.1453 16.6454 40.1453 16.5137 40.0118 16.4697H39.9674C31.5596 13.6152 23.7301 19.1047 11.7635 19.4121C11.4966 19.4121 11.2742 19.6756 11.2742 19.9391C11.2742 20.0269 11.3186 20.1148 11.3631 20.1587L24.3084 39.8329C24.3974 39.9646 24.5753 40.0525 24.7533 39.9646C24.8423 39.9207 24.9312 39.789 24.9312 39.6572L22.1286 27.1852C22.1286 27.0973 22.1731 26.9656 22.2621 26.9217C23.1963 26.5704 30.5364 24.1111 34.0063 25.736Z" fill="#E53C2E"/>
</g>
</svg>
